<mxfile host="app.diagrams.net" agent="Mozilla/5.0 (Windows NT 10.0; Win64; x64) AppleWebKit/537.36 (KHTML, like Gecko) Chrome/128.0.0.0 Safari/537.36" version="24.7.17">
  <diagram name="Page-1" id="0QydwWuA5dv8nexJZWfa">
    <mxGraphModel>
      <root>
        <mxCell id="0" />
        <mxCell id="1" parent="0" />
        <mxCell id="2" value="MedicalRecords Smart Contract System" style="whiteSpace=wrap;strokeWidth=2;verticalAlign=top;" vertex="1" parent="1">
          <mxGeometry x="8" y="8" width="2033" height="346" as="geometry" />
        </mxCell>
        <mxCell id="3" value="Start" style="ellipse;aspect=fixed;strokeWidth=2;whiteSpace=wrap;" vertex="1" parent="2">
          <mxGeometry x="46" y="181" width="50" height="50" as="geometry" />
        </mxCell>
        <mxCell id="4" value="Patient requests access to medical records" style="whiteSpace=wrap;strokeWidth=2;" vertex="1" parent="2">
          <mxGeometry x="171" y="173" width="247" height="66" as="geometry" />
        </mxCell>
        <mxCell id="5" value="Patient ID verification" style="rhombus;strokeWidth=2;whiteSpace=wrap;" vertex="1" parent="2">
          <mxGeometry x="493" y="103" width="206" height="206" as="geometry" />
        </mxCell>
        <mxCell id="6" value="Authorize access" style="whiteSpace=wrap;strokeWidth=2;" vertex="1" parent="2">
          <mxGeometry x="801" y="133" width="181" height="48" as="geometry" />
        </mxCell>
        <mxCell id="7" value="Deny access" style="whiteSpace=wrap;strokeWidth=2;" vertex="1" parent="2">
          <mxGeometry x="819" y="231" width="146" height="48" as="geometry" />
        </mxCell>
        <mxCell id="8" value="Access granted" style="whiteSpace=wrap;strokeWidth=2;" vertex="1" parent="2">
          <mxGeometry x="1057" y="133" width="168" height="48" as="geometry" />
        </mxCell>
        <mxCell id="9" value="Access denied" style="whiteSpace=wrap;strokeWidth=2;" vertex="1" parent="2">
          <mxGeometry x="1060" y="231" width="161" height="48" as="geometry" />
        </mxCell>
        <mxCell id="10" value="Query medical records" style="rhombus;strokeWidth=2;whiteSpace=wrap;" vertex="1" parent="2">
          <mxGeometry x="1300" y="52" width="210" height="210" as="geometry" />
        </mxCell>
        <mxCell id="11" value="Display medical records" style="whiteSpace=wrap;strokeWidth=2;" vertex="1" parent="2">
          <mxGeometry x="1612" y="83" width="230" height="48" as="geometry" />
        </mxCell>
        <mxCell id="12" value="No records found" style="whiteSpace=wrap;strokeWidth=2;" vertex="1" parent="2">
          <mxGeometry x="1636" y="182" width="182" height="48" as="geometry" />
        </mxCell>
        <mxCell id="13" value="End" style="whiteSpace=wrap;strokeWidth=2;" vertex="1" parent="2">
          <mxGeometry x="1918" y="133" width="86" height="48" as="geometry" />
        </mxCell>
        <mxCell id="14" value="" style="curved=1;startArrow=none;endArrow=block;exitX=0.99;exitY=0.5;entryX=0;entryY=0.5;" edge="1" parent="2" source="3" target="4">
          <mxGeometry relative="1" as="geometry">
            <Array as="points" />
          </mxGeometry>
        </mxCell>
        <mxCell id="15" value="" style="curved=1;startArrow=none;endArrow=block;exitX=1;exitY=0.5;entryX=0;entryY=0.5;" edge="1" parent="2" source="4" target="5">
          <mxGeometry relative="1" as="geometry">
            <Array as="points" />
          </mxGeometry>
        </mxCell>
        <mxCell id="16" value="Yes" style="curved=1;startArrow=none;endArrow=block;exitX=1;exitY=0.34;entryX=0;entryY=0.5;" edge="1" parent="2" source="5" target="6">
          <mxGeometry relative="1" as="geometry">
            <Array as="points">
              <mxPoint x="750" y="157" />
            </Array>
          </mxGeometry>
        </mxCell>
        <mxCell id="17" value="No" style="curved=1;startArrow=none;endArrow=block;exitX=1;exitY=0.66;entryX=0;entryY=0.5;" edge="1" parent="2" source="5" target="7">
          <mxGeometry relative="1" as="geometry">
            <Array as="points">
              <mxPoint x="750" y="255" />
            </Array>
          </mxGeometry>
        </mxCell>
        <mxCell id="18" value="" style="curved=1;startArrow=none;endArrow=block;exitX=1;exitY=0.5;entryX=0;entryY=0.5;" edge="1" parent="2" source="6" target="8">
          <mxGeometry relative="1" as="geometry">
            <Array as="points" />
          </mxGeometry>
        </mxCell>
        <mxCell id="19" value="" style="curved=1;startArrow=none;endArrow=block;exitX=1;exitY=0.5;entryX=0;entryY=0.5;" edge="1" parent="2" source="7" target="9">
          <mxGeometry relative="1" as="geometry">
            <Array as="points" />
          </mxGeometry>
        </mxCell>
        <mxCell id="20" value="" style="curved=1;startArrow=none;endArrow=block;exitX=1;exitY=0.5;entryX=0;entryY=0.5;" edge="1" parent="2" source="8" target="10">
          <mxGeometry relative="1" as="geometry">
            <Array as="points" />
          </mxGeometry>
        </mxCell>
        <mxCell id="21" value="Yes" style="curved=1;startArrow=none;endArrow=block;exitX=1;exitY=0.34;entryX=0;entryY=0.51;" edge="1" parent="2" source="10" target="11">
          <mxGeometry relative="1" as="geometry">
            <Array as="points">
              <mxPoint x="1561" y="108" />
            </Array>
          </mxGeometry>
        </mxCell>
        <mxCell id="22" value="No" style="curved=1;startArrow=none;endArrow=block;exitX=1;exitY=0.66;entryX=0;entryY=0.5;" edge="1" parent="2" source="10" target="12">
          <mxGeometry relative="1" as="geometry">
            <Array as="points">
              <mxPoint x="1561" y="206" />
            </Array>
          </mxGeometry>
        </mxCell>
        <mxCell id="23" value="" style="curved=1;startArrow=none;endArrow=block;exitX=1;exitY=0.51;entryX=0.03;entryY=-0.01;" edge="1" parent="2" source="11" target="13">
          <mxGeometry relative="1" as="geometry">
            <Array as="points">
              <mxPoint x="1880" y="108" />
            </Array>
          </mxGeometry>
        </mxCell>
        <mxCell id="24" value="" style="curved=1;startArrow=none;endArrow=block;exitX=1;exitY=0.5;entryX=0.03;entryY=1;" edge="1" parent="2" source="12" target="13">
          <mxGeometry relative="1" as="geometry">
            <Array as="points">
              <mxPoint x="1880" y="206" />
            </Array>
          </mxGeometry>
        </mxCell>
      </root>
    </mxGraphModel>
  </diagram>
</mxfile>
